# xmcd
#
# Track frame offsets:
#	150
#	10307
#	20918
#	33539
#	46388
#	57093
#	69819
#	81421
#	92288
#	103648
#	114679
#	124699
#	135922
#	147287
#	158898
#	169963
#	180078
#	191500
#	201614
#	211388
#	222302
#	234168
#	244888
#	255996
#
# Disc length: 3560 seconds
#
# Revision: 1
# Processed by: cddbd v1.5.1PL2 Copyright (c) Steve Scherf et al.
# Submitted via: audiograbber 1.83.01
#
DISCID=4c0de618
DTITLE=Various Artist - Hillbilly Bop, Boogie and the Honky Tonk Blues, v.2 - di
DTITLE=sc 2
DYEAR=1900
DGENRE=
TTITLE0=Billy Wallace - While the Getting's Good
TTITLE1=Loyd Weaver - One Wheel Draggin'
TTITLE2=Blackie Crawford and the Western Cherokees - When You Make Up Your Mind, 
TTITLE2=I'll Be Around
TTITLE3=Bud Hobbs and his Trail Herders - Goose Rock
TTITLE4=Texas Bill Strength - Paper Boy Boogie
TTITLE5=Hardrock Gunter - Where Have You Been
TTITLE6=Zeke Clements - Payday Saturday Night
TTITLE7=Jesse Rogers and his Saddle Pals - Howlin' and Prowlin'
TTITLE8=Luke McDaniel - Drive On
TTITLE9=Donnie Bowshier - Tight Shoes Boogie
TTITLE10=Billy Ray - She Buys, and Buys, and Buys
TTITLE11=Jim Boyd and his Men of the West - Waxahachie Dishwasher Boy
TTITLE12=Jack Rhodes and his Lone Star Buddies - Mama Loves Papa (And Papa Loves 
TTITLE12=the Women)
TTITLE13=Jimmy Ballard - I Want a Bowlegged Woman
TTITLE14=Louie Innis - Boogie Woogie Baby
TTITLE15=Jack Hart and his Hired Hands - Knock Out the Lights (and Call the Law)
TTITLE16=Earl Slone - Bullfrog Boogie
TTITLE17=Luke McDaniel - I Can't Go
TTITLE18=Johnny Rector - If They Ever Get Together
TTITLE19=Loyd Weaver - Steppin' Out and Sneakin' In
TTITLE20=Blackie Crawford - Jump Jack Jump
TTITLE21=Toby Stroud - My P'roxide Blonde
TTITLE22=Charlie Gore and Louis Innes - You're Just a Female Hound Dog
TTITLE23=Eddie Hill - Buckshot
EXTD=
EXTT0=
EXTT1=
EXTT2=
EXTT3=
EXTT4=
EXTT5=
EXTT6=
EXTT7=
EXTT8=
EXTT9=
EXTT10=
EXTT11=
EXTT12=
EXTT13=
EXTT14=
EXTT15=
EXTT16=
EXTT17=
EXTT18=
EXTT19=
EXTT20=
EXTT21=
EXTT22=
EXTT23=
PLAYORDER=
